<svg width="344" height="344" viewBox="0 0 344 344" fill="none" xmlns="http://www.w3.org/2000/svg">
<path d="M280.01 286.94C280.28 287.12 280.57 287.27 280.87 287.4C281.17 287.52 281.49 287.62 281.81 287.68C282.13 287.75 282.46 287.78 282.78 287.78C283.11 287.78 283.44 287.75 283.76 287.68C284.08 287.62 284.39 287.52 284.69 287.4C285 287.27 285.29 287.12 285.56 286.94C285.83 286.76 286.09 286.55 286.32 286.32C286.55 286.09 286.76 285.83 286.94 285.56C287.12 285.29 287.27 285 287.4 284.69C287.52 284.39 287.62 284.08 287.68 283.76C287.75 283.44 287.78 283.11 287.78 282.78C287.78 281.47 287.25 280.18 286.32 279.25C286.09 279.02 285.83 278.81 285.56 278.63C285.29 278.45 285 278.29 284.69 278.17C284.39 278.04 284.08 277.94 283.76 277.88C283.11 277.75 282.45 277.75 281.81 277.88C281.49 277.94 281.17 278.04 280.87 278.17C280.57 278.29 280.28 278.45 280.01 278.63C279.73 278.81 279.48 279.02 279.25 279.25C279.02 279.48 278.81 279.73 278.62 280.01C278.44 280.28 278.29 280.57 278.16 280.87C278.04 281.17 277.94 281.49 277.88 281.8C277.81 282.13 277.78 282.46 277.78 282.78C277.78 284.1 278.32 285.39 279.25 286.32C279.48 286.55 279.73 286.76 280.01 286.94Z" fill="#D9D9D9"/>
<path d="M222.61 229.14C222.73 229.44 222.89 229.73 223.07 230C223.25 230.28 223.46 230.53 223.69 230.76C224.62 231.69 225.91 232.23 227.23 232.23C227.55 232.23 227.88 232.19 228.2 232.13C228.52 232.06 228.84 231.97 229.14 231.84C229.44 231.72 229.73 231.56 230 231.38C230.28 231.2 230.53 230.99 230.76 230.76C230.99 230.53 231.2 230.28 231.38 230C231.56 229.73 231.72 229.44 231.84 229.14C231.97 228.84 232.07 228.52 232.13 228.2C232.19 227.88 232.23 227.55 232.23 227.23C232.23 226.9 232.19 226.57 232.13 226.25C232.07 225.93 231.97 225.61 231.84 225.31C231.72 225.01 231.56 224.72 231.38 224.45C231.2 224.18 230.99 223.92 230.76 223.69C230.53 223.46 230.28 223.25 230 223.07C229.73 222.89 229.44 222.74 229.14 222.61C228.84 222.49 228.52 222.39 228.2 222.33C226.58 221.99 224.85 222.53 223.69 223.69C223.46 223.92 223.25 224.18 223.07 224.45C222.89 224.72 222.73 225.01 222.61 225.31C222.48 225.61 222.39 225.93 222.32 226.25C222.26 226.57 222.23 226.9 222.23 227.23C222.23 227.55 222.26 227.88 222.32 228.2C222.39 228.52 222.48 228.84 222.61 229.14Z" fill="#D9D9D9"/>
<path d="M222.61 284.69C222.73 285 222.89 285.29 223.07 285.56C223.25 285.83 223.46 286.09 223.69 286.32C223.92 286.55 224.18 286.76 224.45 286.94C224.72 287.12 225.01 287.27 225.31 287.4C225.62 287.52 225.93 287.62 226.25 287.68C226.57 287.75 226.9 287.78 227.23 287.78C227.55 287.78 227.88 287.75 228.2 287.68C228.52 287.62 228.84 287.52 229.14 287.4C229.44 287.27 229.73 287.12 230 286.94C230.27 286.76 230.53 286.55 230.76 286.32C231.69 285.39 232.23 284.1 232.23 282.78C232.23 282.46 232.19 282.13 232.13 281.8C232.06 281.49 231.97 281.17 231.84 280.87C231.72 280.57 231.56 280.28 231.38 280.01C231.2 279.73 230.99 279.48 230.76 279.25C230.53 279.02 230.27 278.81 230 278.63C229.73 278.45 229.44 278.29 229.14 278.17C228.84 278.04 228.52 277.94 228.2 277.88C227.56 277.75 226.89 277.75 226.25 277.88C225.93 277.94 225.62 278.04 225.31 278.17C225.01 278.29 224.72 278.45 224.45 278.63C224.18 278.81 223.92 279.02 223.69 279.25C222.76 280.18 222.23 281.47 222.23 282.78C222.23 283.11 222.26 283.44 222.32 283.76C222.39 284.08 222.48 284.39 222.61 284.69Z" fill="#D9D9D9"/>
<path d="M171.67 176.67C172.99 176.67 174.28 176.14 175.2 175.2C176.14 174.27 176.67 172.99 176.67 171.67C176.67 170.36 176.14 169.07 175.21 168.13C174.98 167.9 174.72 167.69 174.45 167.51C174.18 167.33 173.89 167.18 173.58 167.05C173.28 166.93 172.97 166.83 172.65 166.77C172 166.64 171.34 166.64 170.69 166.77C170.37 166.83 170.06 166.93 169.76 167.05C169.45 167.18 169.16 167.33 168.89 167.51C168.62 167.69 168.36 167.9 168.13 168.13C167.2 169.07 166.67 170.36 166.67 171.67C166.67 172.99 167.2 174.27 168.14 175.2C169.06 176.14 170.35 176.67 171.67 176.67Z" fill="#D9D9D9"/>
<path d="M167.05 229.14C167.18 229.44 167.33 229.73 167.51 230C167.69 230.28 167.9 230.53 168.13 230.76C168.37 230.99 168.62 231.2 168.9 231.38C169.17 231.56 169.46 231.72 169.76 231.84C170.06 231.97 170.37 232.06 170.69 232.13C171.02 232.19 171.34 232.23 171.67 232.23C172 232.23 172.32 232.19 172.65 232.13C172.97 232.06 173.28 231.97 173.58 231.84C173.88 231.72 174.17 231.56 174.44 231.38C174.72 231.2 174.97 230.99 175.21 230.76C175.44 230.53 175.65 230.28 175.83 230C176.01 229.73 176.16 229.44 176.29 229.14C176.41 228.84 176.51 228.52 176.57 228.2C176.64 227.88 176.67 227.55 176.67 227.23C176.67 226.9 176.64 226.57 176.57 226.25C176.51 225.93 176.41 225.61 176.29 225.31C176.16 225.01 176.01 224.72 175.83 224.45C175.65 224.18 175.44 223.92 175.21 223.69C174.97 223.46 174.72 223.25 174.44 223.07C174.17 222.89 173.88 222.74 173.58 222.61C173.28 222.49 172.97 222.39 172.65 222.33C172 222.19 171.34 222.19 170.69 222.33C170.37 222.39 170.06 222.49 169.76 222.61C169.46 222.74 169.17 222.89 168.9 223.07C168.62 223.25 168.37 223.46 168.13 223.69C167.9 223.92 167.69 224.18 167.51 224.45C167.33 224.72 167.18 225.01 167.05 225.31C166.93 225.61 166.83 225.93 166.77 226.25C166.7 226.57 166.67 226.9 166.67 227.23C166.67 227.55 166.7 227.88 166.77 228.2C166.83 228.52 166.93 228.84 167.05 229.14Z" fill="#D9D9D9"/>
<path d="M167.05 284.69C167.18 285 167.33 285.29 167.51 285.56C167.69 285.83 167.9 286.09 168.13 286.32C168.36 286.55 168.62 286.76 168.89 286.94C169.17 287.12 169.46 287.27 169.76 287.4C170.06 287.52 170.37 287.62 170.69 287.68C171.02 287.75 171.34 287.78 171.67 287.78C172 287.78 172.32 287.75 172.65 287.68C172.97 287.62 173.28 287.52 173.58 287.4C173.88 287.27 174.17 287.12 174.44 286.94C174.72 286.76 174.97 286.55 175.21 286.32C176.14 285.39 176.67 284.1 176.67 282.78C176.67 282.46 176.64 282.13 176.57 281.8C176.51 281.49 176.41 281.17 176.29 280.87C176.16 280.57 176.01 280.28 175.83 280.01C175.65 279.73 175.44 279.48 175.21 279.25C174.97 279.02 174.72 278.81 174.44 278.63C174.17 278.45 173.88 278.29 173.58 278.17C173.28 278.04 172.97 277.94 172.65 277.88C172 277.75 171.34 277.75 170.69 277.88C170.37 277.94 170.06 278.04 169.76 278.17C169.46 278.29 169.17 278.45 168.89 278.63C168.62 278.81 168.36 279.02 168.13 279.25C167.2 280.18 166.67 281.47 166.67 282.78C166.67 283.11 166.7 283.44 166.77 283.76C166.83 284.08 166.93 284.39 167.05 284.69Z" fill="#D9D9D9"/>
<path d="M116.11 176.67C116.44 176.67 116.77 176.64 117.09 176.57C117.41 176.51 117.73 176.41 118.03 176.29C118.33 176.16 118.62 176.01 118.89 175.83C119.16 175.64 119.42 175.43 119.65 175.2C120.58 174.28 121.11 172.99 121.11 171.67C121.11 171.34 121.08 171.02 121.02 170.69C120.95 170.37 120.86 170.06 120.73 169.76C120.61 169.46 120.45 169.17 120.27 168.89C120.09 168.62 119.88 168.36 119.65 168.13C119.42 167.9 119.16 167.69 118.89 167.51C118.62 167.33 118.33 167.18 118.03 167.05C117.73 166.93 117.41 166.83 117.09 166.77C115.47 166.44 113.74 166.97 112.58 168.13C111.65 169.07 111.11 170.35 111.11 171.67C111.11 172.99 111.65 174.27 112.58 175.2C113.51 176.14 114.8 176.67 116.11 176.67Z" fill="#D9D9D9"/>
<path d="M120.73 225.31C120.61 225.01 120.45 224.72 120.27 224.45C120.09 224.18 119.88 223.92 119.65 223.69C119.42 223.46 119.16 223.25 118.89 223.07C118.62 222.89 118.33 222.74 118.03 222.61C117.72 222.49 117.41 222.39 117.09 222.33C116.45 222.19 115.78 222.19 115.14 222.33C114.82 222.39 114.5 222.49 114.2 222.61C113.9 222.74 113.61 222.89 113.34 223.07C113.06 223.25 112.81 223.46 112.58 223.69C112.35 223.92 112.14 224.18 111.96 224.45C111.78 224.72 111.62 225.01 111.5 225.31C111.37 225.61 111.28 225.93 111.21 226.25C111.15 226.57 111.12 226.9 111.12 227.23C111.12 227.55 111.15 227.88 111.21 228.2C111.28 228.52 111.37 228.84 111.5 229.14C111.62 229.44 111.78 229.73 111.96 230C112.14 230.28 112.35 230.53 112.58 230.76C112.81 230.99 113.06 231.2 113.34 231.38C113.61 231.56 113.9 231.72 114.2 231.84C114.5 231.97 114.82 232.06 115.14 232.13C115.46 232.19 115.79 232.23 116.12 232.23C116.44 232.23 116.77 232.19 117.09 232.13C117.41 232.06 117.72 231.97 118.03 231.84C118.33 231.72 118.62 231.56 118.89 231.38C119.16 231.2 119.42 230.99 119.65 230.76C119.88 230.53 120.09 230.28 120.27 230C120.45 229.73 120.61 229.44 120.73 229.14C120.86 228.84 120.95 228.52 121.02 228.2C121.08 227.88 121.11 227.55 121.11 227.23C121.11 226.9 121.08 226.57 121.02 226.25C120.95 225.93 120.86 225.61 120.73 225.31Z" fill="#D9D9D9"/>
<path d="M120.73 280.87C120.61 280.57 120.45 280.28 120.27 280.01C120.09 279.73 119.88 279.48 119.65 279.25C119.42 279.02 119.16 278.81 118.89 278.63C118.62 278.45 118.33 278.29 118.03 278.17C117.73 278.04 117.41 277.94 117.09 277.88C116.45 277.75 115.78 277.75 115.14 277.88C114.82 277.94 114.5 278.04 114.2 278.17C113.9 278.29 113.61 278.45 113.34 278.63C113.06 278.81 112.81 279.02 112.58 279.25C111.65 280.18 111.12 281.46 111.12 282.78C111.12 284.1 111.65 285.39 112.58 286.32C112.81 286.55 113.06 286.76 113.34 286.94C113.61 287.12 113.9 287.27 114.2 287.4C114.5 287.52 114.82 287.62 115.14 287.68C115.46 287.75 115.79 287.78 116.11 287.78C116.44 287.78 116.77 287.75 117.09 287.68C117.41 287.62 117.73 287.52 118.03 287.4C118.33 287.27 118.62 287.12 118.89 286.94C119.16 286.76 119.42 286.55 119.65 286.32C120.58 285.39 121.11 284.1 121.11 282.78C121.11 282.46 121.08 282.13 121.02 281.8C120.95 281.49 120.86 281.17 120.73 280.87Z" fill="#D9D9D9"/>
<path d="M60.5601 176.67C60.8801 176.67 61.2101 176.64 61.5301 176.57C61.8501 176.51 62.1701 176.41 62.4701 176.29C62.7701 176.16 63.0601 176.01 63.3301 175.83C63.6101 175.64 63.8601 175.43 64.0901 175.2C65.0301 174.27 65.5601 172.99 65.5601 171.67C65.5601 170.35 65.0301 169.07 64.0901 168.13C63.8601 167.9 63.6101 167.69 63.3301 167.51C63.0601 167.33 62.7701 167.18 62.4701 167.05C62.1701 166.93 61.8501 166.83 61.5301 166.77C60.8901 166.64 60.2301 166.64 59.5801 166.77C59.2601 166.83 58.9501 166.93 58.6501 167.05C58.3401 167.18 58.0501 167.33 57.7801 167.51C57.5101 167.69 57.2501 167.9 57.0201 168.13C56.0901 169.07 55.5601 170.35 55.5601 171.67C55.5601 172.99 56.0901 174.27 57.0201 175.2C57.9501 176.14 59.2401 176.67 60.5601 176.67Z" fill="#D9D9D9"/>
<path d="M111.5 118.03C111.62 118.33 111.78 118.62 111.96 118.89C112.14 119.16 112.35 119.42 112.58 119.65C113.51 120.58 114.8 121.11 116.11 121.11C116.44 121.11 116.77 121.08 117.09 121.01C117.41 120.95 117.73 120.86 118.03 120.73C118.33 120.61 118.62 120.45 118.89 120.27C119.16 120.09 119.42 119.88 119.65 119.65C119.88 119.42 120.09 119.16 120.27 118.89C120.45 118.62 120.61 118.33 120.73 118.03C120.86 117.73 120.95 117.41 121.02 117.09C121.08 116.77 121.12 116.44 121.12 116.11C121.12 115.79 121.08 115.46 121.02 115.14C120.95 114.82 120.86 114.5 120.73 114.2C120.61 113.9 120.45 113.61 120.27 113.34C120.09 113.06 119.88 112.81 119.65 112.58C119.42 112.35 119.16 112.14 118.89 111.96C118.62 111.78 118.33 111.62 118.03 111.5C117.73 111.37 117.41 111.28 117.09 111.21C115.47 110.88 113.74 111.42 112.58 112.58C111.65 113.51 111.11 114.8 111.11 116.11C111.11 116.44 111.15 116.77 111.21 117.09C111.28 117.41 111.37 117.73 111.5 118.03Z" fill="#D9D9D9"/>
<path d="M55.9401 118.03C56.0701 118.33 56.2201 118.62 56.4001 118.89C56.5801 119.16 56.7901 119.42 57.0201 119.65C57.2501 119.88 57.5101 120.09 57.7801 120.27C58.0501 120.45 58.3401 120.61 58.6501 120.73C58.9501 120.86 59.2601 120.95 59.5801 121.01C59.9001 121.08 60.2301 121.11 60.5601 121.11C60.8901 121.11 61.2101 121.08 61.5401 121.01C61.8501 120.95 62.1701 120.86 62.4701 120.73C62.7701 120.61 63.0601 120.45 63.3301 120.27C63.6101 120.09 63.8601 119.88 64.0901 119.65C64.3201 119.42 64.5301 119.16 64.7201 118.89C64.9001 118.62 65.0501 118.33 65.1801 118.03C65.3001 117.73 65.4001 117.41 65.4601 117.09C65.5301 116.77 65.5601 116.44 65.5601 116.11C65.5601 114.8 65.0301 113.51 64.1001 112.58C63.8601 112.35 63.6101 112.14 63.3301 111.96C63.0601 111.78 62.7701 111.62 62.4701 111.5C62.1701 111.37 61.8501 111.28 61.5401 111.21C60.8901 111.08 60.2301 111.08 59.5801 111.21C59.2601 111.28 58.9501 111.37 58.6501 111.5C58.3401 111.62 58.0501 111.78 57.7801 111.96C57.5101 112.14 57.2501 112.35 57.0201 112.58C56.7901 112.81 56.5801 113.06 56.4001 113.34C56.2201 113.61 56.0701 113.9 55.9401 114.2C55.8201 114.5 55.7201 114.82 55.6601 115.14C55.5901 115.46 55.5601 115.79 55.5601 116.11C55.5601 116.44 55.5901 116.77 55.6601 117.09C55.7201 117.41 55.8201 117.73 55.9401 118.03Z" fill="#D9D9D9"/>
<path d="M55.9401 62.4697C56.0701 62.7697 56.2201 63.0597 56.4001 63.3297C56.5801 63.6097 56.7901 63.8597 57.0201 64.0897C57.2501 64.3197 57.5101 64.5297 57.7801 64.7097C58.0501 64.8897 58.3401 65.0497 58.6501 65.1697C58.9501 65.2997 59.2601 65.3997 59.5801 65.4597C59.9001 65.5197 60.2301 65.5597 60.5601 65.5597C60.8801 65.5597 61.2101 65.5197 61.5401 65.4597C61.8501 65.3997 62.1701 65.2997 62.4701 65.1697C62.7701 65.0497 63.0601 64.8897 63.3301 64.7097C63.6101 64.5297 63.8601 64.3197 64.0901 64.0897C65.0301 63.1597 65.5601 61.8697 65.5601 60.5597C65.5601 59.2497 65.0301 57.9597 64.0901 57.0297C63.8601 56.7897 63.6101 56.5797 63.3301 56.3997C63.0601 56.2197 62.7701 56.0697 62.4701 55.9397C62.1701 55.8197 61.8501 55.7197 61.5401 55.6597C60.8901 55.5197 60.2301 55.5197 59.5801 55.6597C59.2601 55.7197 58.9501 55.8197 58.6501 55.9397C58.3401 56.0697 58.0501 56.2197 57.7801 56.3997C57.5101 56.5797 57.2501 56.7897 57.0201 57.0297C56.7901 57.2497 56.5801 57.5097 56.4001 57.7797C56.2201 58.0497 56.0701 58.3397 55.9401 58.6497C55.8201 58.9497 55.7201 59.2597 55.6601 59.5797C55.5901 59.8997 55.5601 60.2297 55.5601 60.5597C55.5601 60.8897 55.5901 61.2097 55.6601 61.5397C55.7201 61.8597 55.8201 62.1697 55.9401 62.4697Z" fill="#D9D9D9"/>
<path d="M55.9401 229.14C56.0701 229.44 56.2201 229.73 56.4001 230C56.5801 230.28 56.7901 230.53 57.0201 230.76C57.2501 230.99 57.5101 231.2 57.7801 231.38C58.0501 231.56 58.3401 231.72 58.6501 231.84C58.9501 231.97 59.2601 232.06 59.5801 232.13C59.9001 232.19 60.2301 232.23 60.5601 232.23C60.8801 232.23 61.2101 232.19 61.5401 232.13C61.8501 232.06 62.1701 231.97 62.4701 231.84C62.7701 231.72 63.0601 231.56 63.3301 231.38C63.6101 231.2 63.8601 230.99 64.0901 230.76C64.3201 230.53 64.5301 230.28 64.7201 230C64.9001 229.73 65.0501 229.44 65.1801 229.14C65.3001 228.84 65.4001 228.52 65.4601 228.2C65.5301 227.88 65.5601 227.55 65.5601 227.23C65.5601 226.9 65.5301 226.57 65.4601 226.25C65.4001 225.93 65.3001 225.61 65.1801 225.31C65.0501 225.01 64.9001 224.72 64.7201 224.45C64.5301 224.18 64.3201 223.92 64.0901 223.69C63.8601 223.46 63.6101 223.25 63.3301 223.07C63.0601 222.89 62.7701 222.74 62.4701 222.61C62.1701 222.49 61.8501 222.39 61.5401 222.33C60.8901 222.19 60.2301 222.19 59.5801 222.33C59.2601 222.39 58.9501 222.49 58.6501 222.61C58.3401 222.74 58.0501 222.89 57.7801 223.07C57.5101 223.25 57.2501 223.46 57.0201 223.69C56.7901 223.92 56.5801 224.18 56.4001 224.45C56.2201 224.72 56.0701 225.01 55.9401 225.31C55.8201 225.61 55.7201 225.93 55.6601 226.25C55.5901 226.57 55.5601 226.9 55.5601 227.23C55.5601 227.55 55.5901 227.88 55.6601 228.2C55.7201 228.52 55.8201 228.84 55.9401 229.14Z" fill="#D9D9D9"/>
<path d="M60.5601 287.78C60.8801 287.78 61.2101 287.75 61.5401 287.68C61.8601 287.62 62.1701 287.52 62.4701 287.4C62.7701 287.27 63.0601 287.12 63.3301 286.94C63.6101 286.76 63.8601 286.55 64.0901 286.32C65.0201 285.39 65.5601 284.1 65.5601 282.78C65.5601 282.46 65.5201 282.13 65.4601 281.8C65.4001 281.49 65.3001 281.17 65.1701 280.87C65.0501 280.57 64.9001 280.28 64.7201 280.01C64.5301 279.73 64.3201 279.48 64.0901 279.25C63.8601 279.02 63.6101 278.81 63.3301 278.63C63.0601 278.45 62.7701 278.29 62.4701 278.17C62.1701 278.04 61.8601 277.94 61.5401 277.88C60.8901 277.75 60.2301 277.75 59.5801 277.88C59.2601 277.94 58.9501 278.04 58.6501 278.17C58.3401 278.29 58.0501 278.45 57.7801 278.63C57.5101 278.81 57.2501 279.02 57.0201 279.25C56.0901 280.18 55.5601 281.46 55.5601 282.78C55.5601 284.1 56.0901 285.39 57.0201 286.32C57.9501 287.25 59.2401 287.78 60.5601 287.78Z" fill="#D9D9D9"/>
<path d="M0 0V343.33H343.33V0H0ZM333.34 333.34H10V10H333.33V333.34H333.34Z" fill="#D9D9D9"/>
</svg>
