<svg width="344" height="344" viewBox="0 0 344 344" fill="none" xmlns="http://www.w3.org/2000/svg">
<path d="M172 62C111.345 62 62 111.345 62 172C62 232.655 111.345 282 172 282C232.655 282 282 232.655 282 172C282 111.345 232.655 62 172 62ZM172 68.4076C228.048 68.4076 273.837 113.152 275.535 168.796H68.4653C70.1633 113.152 115.952 68.4076 172 68.4076ZM172 275.592C115.952 275.592 70.1633 230.848 68.4653 175.204H275.535C273.837 230.848 228.048 275.592 172 275.592Z" fill="#D9D9D9"/>
<path d="M0 0V343.33H343.33V0H0ZM333.34 333.34H10V10H333.33V333.34H333.34Z" fill="#D9D9D9"/>
</svg>
