<svg width="344" height="344" viewBox="0 0 344 344" fill="none" xmlns="http://www.w3.org/2000/svg">
<path d="M343.57 337.69C343.51 337.37 343.41 337.06 343.28 336.75C343.16 336.45 343 336.16 342.82 335.89C342.64 335.62 342.43 335.36 342.2 335.13C341.97 334.9 341.72 334.69 341.44 334.51C341.17 334.33 340.88 334.17 340.58 334.05C340.28 333.92 339.96 333.83 339.64 333.76C339 333.63 338.33 333.63 337.69 333.76C337.37 333.83 337.06 333.92 336.75 334.05C336.45 334.17 336.16 334.33 335.89 334.51C335.62 334.69 335.36 334.9 335.13 335.13C334.9 335.36 334.69 335.62 334.51 335.89C334.33 336.16 334.17 336.45 334.05 336.75C333.92 337.06 333.83 337.37 333.76 337.69C333.7 338.01 333.67 338.34 333.67 338.67C333.67 339.98 334.2 341.27 335.13 342.2C335.36 342.43 335.62 342.64 335.89 342.82C336.16 343 336.45 343.16 336.75 343.28C337.06 343.41 337.37 343.5 337.69 343.57C338.01 343.63 338.34 343.67 338.67 343.67C338.99 343.67 339.32 343.63 339.64 343.57C339.96 343.5 340.28 343.41 340.58 343.28C340.88 343.16 341.17 343 341.44 342.82C341.72 342.64 341.97 342.43 342.2 342.2C343.13 341.27 343.67 339.98 343.67 338.67C343.67 338.34 343.63 338.01 343.57 337.69Z" fill="#D9D9D9"/>
<path d="M2.56001 9.48964C2.83001 9.66964 3.12001 9.82964 3.42001 9.94964C3.72001 10.0796 4.04002 10.1696 4.36002 10.2396C4.68002 10.2996 5.01002 10.3296 5.33002 10.3296C6.65002 10.3296 7.94002 9.79965 8.87002 8.86965C9.80002 7.93965 10.33 6.64964 10.33 5.32964C10.33 5.00964 10.3 4.67964 10.23 4.35964C10.17 4.03964 10.07 3.71964 9.95001 3.41964C9.82001 3.11964 9.67001 2.82964 9.49001 2.55964C9.31001 2.27964 9.10002 2.02965 8.87002 1.79965C7.71002 0.639645 5.98002 0.0996426 4.36002 0.429643C4.04002 0.499643 3.72001 0.589644 3.42001 0.719644C3.12001 0.839644 2.83001 0.999643 2.56001 1.17964C2.28001 1.35964 2.03002 1.56965 1.80002 1.79965C1.57002 2.02965 1.36002 2.27964 1.18002 2.55964C0.990016 2.82964 0.840016 3.11964 0.720016 3.41964C0.590016 3.71964 0.490016 4.03964 0.430016 4.35964C0.360016 4.67964 0.330017 5.00964 0.330017 5.32964C0.330017 6.64964 0.870018 7.93965 1.80002 8.86965C2.03002 9.09965 2.28001 9.30964 2.56001 9.48964Z" fill="#D9D9D9"/>
<path d="M1.80002 92.1994C2.78002 93.1794 4.06001 93.6594 5.34001 93.6594C6.62001 93.6594 7.90001 93.1694 8.88001 92.1994L92.21 8.86941C94.16 6.91941 94.16 3.74941 92.21 1.79941C90.26 -0.150586 87.09 -0.150586 85.14 1.79941L1.80002 85.1294C-0.159983 87.0794 -0.159983 90.2494 1.80002 92.1994Z" fill="#D9D9D9"/>
<path d="M1.80002 175.539C2.78002 176.519 4.06001 176.999 5.34001 176.999C6.62001 176.999 7.90001 176.509 8.88001 175.539L175.54 8.86941C177.49 6.91941 177.49 3.74941 175.54 1.79941C173.59 -0.150586 170.42 -0.150586 168.47 1.79941L1.80002 168.459C-0.159983 170.419 -0.159983 173.579 1.80002 175.539Z" fill="#D9D9D9"/>
<path d="M1.80002 258.869C2.78002 259.849 4.06002 260.329 5.34002 260.329C6.62002 260.329 7.90002 259.839 8.88002 258.869L258.88 8.86941C260.83 6.91941 260.83 3.74941 258.88 1.79941C256.93 -0.150586 253.76 -0.150586 251.81 1.79941L1.81002 251.799C-0.159982 253.749 -0.159977 256.919 1.80002 258.869Z" fill="#D9D9D9"/>
<path d="M342.2 1.79941C340.25 -0.150586 337.08 -0.150586 335.13 1.79941L1.80002 335.129C-0.149976 337.079 -0.149976 340.249 1.80002 342.199C2.78002 343.179 4.06002 343.659 5.34002 343.659C6.62002 343.659 7.90002 343.169 8.88002 342.199L342.2 8.86941C344.16 6.91941 344.16 3.74941 342.2 1.79941Z" fill="#D9D9D9"/>
<path d="M342.2 85.1295C340.25 83.1795 337.08 83.1795 335.13 85.1295L85.13 335.129C83.18 337.079 83.18 340.249 85.13 342.199C86.11 343.179 87.39 343.659 88.67 343.659C89.95 343.659 91.23 343.169 92.21 342.199L342.21 92.1995C344.16 90.2495 344.16 87.0795 342.2 85.1295Z" fill="#D9D9D9"/>
<path d="M342.2 168.46C340.25 166.51 337.08 166.51 335.13 168.46L168.46 335.13C166.51 337.08 166.51 340.25 168.46 342.2C169.44 343.18 170.72 343.66 172 343.66C173.28 343.66 174.56 343.17 175.54 342.2L342.2 175.54C344.16 173.58 344.16 170.42 342.2 168.46Z" fill="#D9D9D9"/>
<path d="M342.2 251.799C340.25 249.849 337.08 249.849 335.13 251.799L251.8 335.129C249.85 337.079 249.85 340.249 251.8 342.199C252.78 343.179 254.06 343.659 255.34 343.659C256.62 343.659 257.9 343.169 258.88 342.199L342.21 258.869C344.16 256.919 344.16 253.749 342.2 251.799Z" fill="#D9D9D9"/>
<path d="M0 0V343.33H343.33V0H0ZM333.34 333.34H10V10H333.33V333.34H333.34Z" fill="#D9D9D9"/>
</svg>
